<svg xmlns="http://www.w3.org/2000/svg" className='fill-gray-600 dark:fill-gray-300' xmlns:xlink="http://www.w3.org/1999/xlink" version="1.1" x="0px" y="0px" viewBox="0 0 100 125" style="enable-background:new 0 0 100 100;" xml:space="preserve"><g>
<path d="M91.0810852,13.3967419H41.3729477C39.0724182,7.0497222,33.0027161,2.5,25.8854256,2.5   c-7.1275711,0-13.1973362,4.5497222-15.4978666,10.8967419H8.9189177c-3.5432558,0-6.4189186,2.8756638-6.4189186,6.4189186   v48.1573181c0,3.543251,2.875663,6.4189148,6.4189186,6.4189148h32.1254349l-7.0659523,12.2113647H28.072998   c-3.481638,0-6.3162422,2.83461-6.3162422,6.3161774v3.2967834L23.0405407,97.5h53.9189148l1.283783-1.283783v-3.2967834   c0-3.4815674-2.8346024-6.3161774-6.3162384-6.3161774h-5.9054031l-7.0659523-12.2113647h32.1254387   c3.543251,0,6.4189148-2.8756638,6.4189148-6.4189148V19.8156605C97.5,16.2724056,94.6243362,13.3967419,91.0810852,13.3967419z    M25.8854256,5.0675673c7.6718597,0,13.9162025,6.2443423,13.9162025,13.9162025   c0,7.6822052-6.2443428,13.9264851-13.9162025,13.9264851c-7.6822052,0-13.9264851-6.2442799-13.9264851-13.9264851   C11.9589405,11.3119097,18.2032204,5.0675673,25.8854256,5.0675673z M71.927002,89.1708221   c2.0643387,0,3.7486725,1.6843414,3.7486725,3.7486115v2.0130005H24.3243237v-2.0130005   c0-2.06427,1.6843395-3.7486115,3.7486744-3.7486115H71.927002z M63.0535355,86.6032562H36.9464645l7.0659485-12.2113647h11.975174   L63.0535355,86.6032562z M74.2789383,68.0859299h-5.6281509V65.518364h5.6281509V68.0859299z M88.0410614,68.0859299h-5.6178131   V65.518364h5.6178131V68.0859299z M94.9324341,59.2124023H5.0675664V19.8156605   c0-2.1259537,1.7253981-3.8513508,3.8513513-3.8513508h0.7599897c-0.1745768,0.9859676-0.2875347,1.9924355-0.2875347,3.0194607   c0,8.6578312,6.7167339,15.7649021,15.210268,16.4324322v3.8308563H21.890274l-1.283783,1.283783v15.2718849l1.283783,1.283783   h7.9800205l1.2837849-1.283783V40.5308418l-1.2837849-1.283783h-2.701086v-3.8308563   c8.4832535-0.6675301,15.1999893-7.774601,15.1999893-16.4324322c0-1.0270252-0.1027412-2.033493-0.2875977-3.0194607h48.999485   c2.1259537,0,3.8513489,1.7253971,3.8513489,3.8513508V59.2124023z M28.5865116,41.8146248v12.704319h-5.4124527v-12.704319   H28.5865116z"/></g>
<g><path d="M79.8864594,37.5832138c0-0.8729477-0.0821152-1.7458954-0.256752-2.5777817l3.3276215-2.9578438l-3.1324844-5.4227333   l-4.2313461,1.4070225c-1.283783-1.139986-2.7934875-2.0334949-4.4675446-2.5880661l-0.8935089-4.3546467h-6.2649002   l-0.8935089,4.3546467c-1.6637802,0.5545712-3.1837616,1.4480801-4.4572639,2.5880661l-4.2313461-1.4070225l-3.1324844,5.4227333   l3.3276215,2.9578438c-0.1746407,0.8318863-0.2670364,1.704834-0.2670364,2.5777817   c0,0.8832932,0.0923958,1.7459602,0.2670364,2.5778503l-3.3276215,2.9681244l3.1324844,5.4124489l4.2313461-1.396801   c1.2735023,1.1400452,2.7934837,2.0232735,4.4572639,2.5778465l0.8935089,4.3648643h6.2649002l0.8935089-4.3648643   c1.674057-0.5545731,3.1837616-1.4378014,4.4675446-2.5778465l4.2313461,1.396801l3.1324844-5.4124489l-3.3276215-2.9681244   C79.8043442,39.329174,79.8864594,38.466507,79.8864594,37.5832138z M67.100029,44.5670509   c-3.8513565,0-6.9838371-3.1222038-6.9838371-6.9838371c0-3.8513489,3.1324806-6.9837685,6.9838371-6.9837685   c3.8615646,0,6.9837646,3.1324196,6.9837646,6.9837685C74.0837936,41.4448471,70.9615936,44.5670509,67.100029,44.5670509z"/></g>
</svg>